<mxfile host="app.diagrams.net" agent="Mozilla/5.0 (Macintosh; Intel Mac OS X 10_15_7) AppleWebKit/537.36 (KHTML, like Gecko) Chrome/131.0.0.0 Safari/537.36" version="25.0.3">
  <diagram id="6a731a19-8d31-9384-78a2-239565b7b9f0" name="Page-1">
    <mxGraphModel grid="1" page="1" gridSize="10" guides="1" tooltips="1" connect="1" arrows="1" fold="1" pageScale="1" pageWidth="1169" pageHeight="827" background="none" math="0" shadow="0">
      <root>
        <mxCell id="0" />
        <mxCell id="1" parent="0" />
        <mxCell id="vbBeiTdjYTLyHqXOJeHc-1780" value="" style="edgeStyle=orthogonalEdgeStyle;rounded=0;orthogonalLoop=1;jettySize=auto;html=1;" edge="1" parent="1" source="1749" target="vbBeiTdjYTLyHqXOJeHc-1779">
          <mxGeometry relative="1" as="geometry" />
        </mxCell>
        <mxCell id="vbBeiTdjYTLyHqXOJeHc-1782" value="" style="edgeStyle=orthogonalEdgeStyle;rounded=0;orthogonalLoop=1;jettySize=auto;html=1;" edge="1" parent="1" source="1749" target="vbBeiTdjYTLyHqXOJeHc-1781">
          <mxGeometry relative="1" as="geometry" />
        </mxCell>
        <mxCell id="vbBeiTdjYTLyHqXOJeHc-1784" value="" style="edgeStyle=orthogonalEdgeStyle;rounded=0;orthogonalLoop=1;jettySize=auto;html=1;" edge="1" parent="1" source="1749" target="vbBeiTdjYTLyHqXOJeHc-1783">
          <mxGeometry relative="1" as="geometry" />
        </mxCell>
        <mxCell id="vbBeiTdjYTLyHqXOJeHc-1786" value="" style="edgeStyle=orthogonalEdgeStyle;rounded=0;orthogonalLoop=1;jettySize=auto;html=1;" edge="1" parent="1" source="1749" target="vbBeiTdjYTLyHqXOJeHc-1785">
          <mxGeometry relative="1" as="geometry" />
        </mxCell>
        <mxCell id="1749" value="Безопасность данных" style="rounded=1;whiteSpace=wrap;html=1;shadow=0;labelBackgroundColor=none;strokeColor=none;strokeWidth=3;fillColor=#2F5B7C;fontFamily=Helvetica;fontSize=16;fontColor=#FFFFFF;align=center;fontStyle=1;spacing=5;arcSize=7;perimeterSpacing=2;" vertex="1" parent="1">
          <mxGeometry x="495" y="380.5" width="150" height="70" as="geometry" />
        </mxCell>
        <mxCell id="vbBeiTdjYTLyHqXOJeHc-1788" value="" style="edgeStyle=orthogonalEdgeStyle;rounded=0;orthogonalLoop=1;jettySize=auto;html=1;" edge="1" parent="1" source="vbBeiTdjYTLyHqXOJeHc-1779" target="vbBeiTdjYTLyHqXOJeHc-1787">
          <mxGeometry relative="1" as="geometry" />
        </mxCell>
        <mxCell id="vbBeiTdjYTLyHqXOJeHc-1791" value="" style="edgeStyle=orthogonalEdgeStyle;rounded=0;orthogonalLoop=1;jettySize=auto;html=1;entryX=0.5;entryY=1;entryDx=0;entryDy=0;" edge="1" parent="1" source="vbBeiTdjYTLyHqXOJeHc-1779" target="vbBeiTdjYTLyHqXOJeHc-1792">
          <mxGeometry relative="1" as="geometry">
            <mxPoint x="770" y="155.5" as="targetPoint" />
          </mxGeometry>
        </mxCell>
        <mxCell id="vbBeiTdjYTLyHqXOJeHc-1795" value="" style="edgeStyle=orthogonalEdgeStyle;rounded=0;orthogonalLoop=1;jettySize=auto;html=1;" edge="1" parent="1" source="vbBeiTdjYTLyHqXOJeHc-1779" target="vbBeiTdjYTLyHqXOJeHc-1794">
          <mxGeometry relative="1" as="geometry" />
        </mxCell>
        <mxCell id="vbBeiTdjYTLyHqXOJeHc-1779" value="Публичные данные" style="whiteSpace=wrap;html=1;fontSize=16;fillColor=#2F5B7C;strokeColor=none;fontColor=#FFFFFF;rounded=1;shadow=0;labelBackgroundColor=none;strokeWidth=3;fontStyle=1;spacing=5;arcSize=7;" vertex="1" parent="1">
          <mxGeometry x="510" y="235.5" width="120" height="60" as="geometry" />
        </mxCell>
        <mxCell id="vbBeiTdjYTLyHqXOJeHc-1818" value="" style="edgeStyle=orthogonalEdgeStyle;rounded=0;orthogonalLoop=1;jettySize=auto;html=1;entryX=0;entryY=0.5;entryDx=0;entryDy=0;" edge="1" parent="1" source="vbBeiTdjYTLyHqXOJeHc-1781" target="vbBeiTdjYTLyHqXOJeHc-1817">
          <mxGeometry relative="1" as="geometry" />
        </mxCell>
        <mxCell id="vbBeiTdjYTLyHqXOJeHc-1820" value="" style="edgeStyle=orthogonalEdgeStyle;rounded=0;orthogonalLoop=1;jettySize=auto;html=1;entryX=0;entryY=0.5;entryDx=0;entryDy=0;" edge="1" parent="1" source="vbBeiTdjYTLyHqXOJeHc-1781" target="vbBeiTdjYTLyHqXOJeHc-1819">
          <mxGeometry relative="1" as="geometry" />
        </mxCell>
        <mxCell id="vbBeiTdjYTLyHqXOJeHc-1822" style="edgeStyle=orthogonalEdgeStyle;rounded=0;orthogonalLoop=1;jettySize=auto;html=1;exitX=1;exitY=0.5;exitDx=0;exitDy=0;entryX=0;entryY=0.5;entryDx=0;entryDy=0;" edge="1" parent="1" source="vbBeiTdjYTLyHqXOJeHc-1781" target="vbBeiTdjYTLyHqXOJeHc-1821">
          <mxGeometry relative="1" as="geometry" />
        </mxCell>
        <mxCell id="vbBeiTdjYTLyHqXOJeHc-1824" style="edgeStyle=orthogonalEdgeStyle;rounded=0;orthogonalLoop=1;jettySize=auto;html=1;exitX=1;exitY=0.5;exitDx=0;exitDy=0;entryX=0;entryY=0.5;entryDx=0;entryDy=0;" edge="1" parent="1" source="vbBeiTdjYTLyHqXOJeHc-1781" target="vbBeiTdjYTLyHqXOJeHc-1823">
          <mxGeometry relative="1" as="geometry" />
        </mxCell>
        <mxCell id="vbBeiTdjYTLyHqXOJeHc-1781" value="Внутренние данные" style="whiteSpace=wrap;html=1;fontSize=16;fillColor=#2F5B7C;strokeColor=none;fontColor=#FFFFFF;rounded=1;shadow=0;labelBackgroundColor=none;strokeWidth=3;fontStyle=1;spacing=5;arcSize=7;" vertex="1" parent="1">
          <mxGeometry x="740" y="385.5" width="120" height="60" as="geometry" />
        </mxCell>
        <mxCell id="vbBeiTdjYTLyHqXOJeHc-1906" value="" style="edgeStyle=orthogonalEdgeStyle;rounded=0;orthogonalLoop=1;jettySize=auto;html=1;" edge="1" parent="1" source="vbBeiTdjYTLyHqXOJeHc-1783" target="vbBeiTdjYTLyHqXOJeHc-1905">
          <mxGeometry relative="1" as="geometry" />
        </mxCell>
        <mxCell id="vbBeiTdjYTLyHqXOJeHc-1908" value="" style="edgeStyle=orthogonalEdgeStyle;rounded=0;orthogonalLoop=1;jettySize=auto;html=1;" edge="1" parent="1" source="vbBeiTdjYTLyHqXOJeHc-1783" target="vbBeiTdjYTLyHqXOJeHc-1907">
          <mxGeometry relative="1" as="geometry" />
        </mxCell>
        <mxCell id="vbBeiTdjYTLyHqXOJeHc-1911" value="" style="edgeStyle=orthogonalEdgeStyle;rounded=0;orthogonalLoop=1;jettySize=auto;html=1;" edge="1" parent="1" source="vbBeiTdjYTLyHqXOJeHc-1783" target="vbBeiTdjYTLyHqXOJeHc-1910">
          <mxGeometry relative="1" as="geometry" />
        </mxCell>
        <mxCell id="vbBeiTdjYTLyHqXOJeHc-1913" value="" style="edgeStyle=orthogonalEdgeStyle;rounded=0;orthogonalLoop=1;jettySize=auto;html=1;" edge="1" parent="1" source="vbBeiTdjYTLyHqXOJeHc-1783" target="vbBeiTdjYTLyHqXOJeHc-1912">
          <mxGeometry relative="1" as="geometry" />
        </mxCell>
        <mxCell id="vbBeiTdjYTLyHqXOJeHc-1914" value="" style="edgeStyle=orthogonalEdgeStyle;rounded=0;orthogonalLoop=1;jettySize=auto;html=1;" edge="1" parent="1" source="vbBeiTdjYTLyHqXOJeHc-1783" target="vbBeiTdjYTLyHqXOJeHc-1912">
          <mxGeometry relative="1" as="geometry" />
        </mxCell>
        <mxCell id="vbBeiTdjYTLyHqXOJeHc-1916" value="" style="edgeStyle=orthogonalEdgeStyle;rounded=0;orthogonalLoop=1;jettySize=auto;html=1;" edge="1" parent="1" source="vbBeiTdjYTLyHqXOJeHc-1783" target="vbBeiTdjYTLyHqXOJeHc-1915">
          <mxGeometry relative="1" as="geometry" />
        </mxCell>
        <mxCell id="vbBeiTdjYTLyHqXOJeHc-1918" value="" style="edgeStyle=orthogonalEdgeStyle;rounded=0;orthogonalLoop=1;jettySize=auto;html=1;" edge="1" parent="1" source="vbBeiTdjYTLyHqXOJeHc-1783" target="vbBeiTdjYTLyHqXOJeHc-1917">
          <mxGeometry relative="1" as="geometry" />
        </mxCell>
        <mxCell id="vbBeiTdjYTLyHqXOJeHc-1783" value="Секретные данные" style="whiteSpace=wrap;html=1;fontSize=16;fillColor=#2F5B7C;strokeColor=none;fontColor=#FFFFFF;rounded=1;shadow=0;labelBackgroundColor=none;strokeWidth=3;fontStyle=1;spacing=5;arcSize=7;" vertex="1" parent="1">
          <mxGeometry x="510" y="535.5" width="120" height="60" as="geometry" />
        </mxCell>
        <mxCell id="vbBeiTdjYTLyHqXOJeHc-1860" value="" style="edgeStyle=orthogonalEdgeStyle;rounded=0;orthogonalLoop=1;jettySize=auto;html=1;entryX=1;entryY=0.5;entryDx=0;entryDy=0;" edge="1" parent="1" source="vbBeiTdjYTLyHqXOJeHc-1785" target="vbBeiTdjYTLyHqXOJeHc-1859">
          <mxGeometry relative="1" as="geometry" />
        </mxCell>
        <mxCell id="vbBeiTdjYTLyHqXOJeHc-1867" style="edgeStyle=orthogonalEdgeStyle;rounded=0;orthogonalLoop=1;jettySize=auto;html=1;exitX=0;exitY=0.5;exitDx=0;exitDy=0;entryX=1;entryY=0.5;entryDx=0;entryDy=0;" edge="1" parent="1" source="vbBeiTdjYTLyHqXOJeHc-1785" target="vbBeiTdjYTLyHqXOJeHc-1861">
          <mxGeometry relative="1" as="geometry" />
        </mxCell>
        <mxCell id="vbBeiTdjYTLyHqXOJeHc-1868" style="edgeStyle=orthogonalEdgeStyle;rounded=0;orthogonalLoop=1;jettySize=auto;html=1;exitX=0;exitY=0.5;exitDx=0;exitDy=0;entryX=1;entryY=0.5;entryDx=0;entryDy=0;" edge="1" parent="1" source="vbBeiTdjYTLyHqXOJeHc-1785" target="vbBeiTdjYTLyHqXOJeHc-1862">
          <mxGeometry relative="1" as="geometry" />
        </mxCell>
        <mxCell id="vbBeiTdjYTLyHqXOJeHc-1869" style="edgeStyle=orthogonalEdgeStyle;rounded=0;orthogonalLoop=1;jettySize=auto;html=1;exitX=0;exitY=0.5;exitDx=0;exitDy=0;entryX=1;entryY=0.5;entryDx=0;entryDy=0;" edge="1" parent="1" source="vbBeiTdjYTLyHqXOJeHc-1785" target="vbBeiTdjYTLyHqXOJeHc-1863">
          <mxGeometry relative="1" as="geometry" />
        </mxCell>
        <mxCell id="vbBeiTdjYTLyHqXOJeHc-1870" style="edgeStyle=orthogonalEdgeStyle;rounded=0;orthogonalLoop=1;jettySize=auto;html=1;exitX=0;exitY=0.5;exitDx=0;exitDy=0;entryX=1;entryY=0.5;entryDx=0;entryDy=0;" edge="1" parent="1" source="vbBeiTdjYTLyHqXOJeHc-1785" target="vbBeiTdjYTLyHqXOJeHc-1864">
          <mxGeometry relative="1" as="geometry" />
        </mxCell>
        <mxCell id="vbBeiTdjYTLyHqXOJeHc-1871" style="edgeStyle=orthogonalEdgeStyle;rounded=0;orthogonalLoop=1;jettySize=auto;html=1;exitX=0;exitY=0.5;exitDx=0;exitDy=0;entryX=1;entryY=0.5;entryDx=0;entryDy=0;" edge="1" parent="1" source="vbBeiTdjYTLyHqXOJeHc-1785" target="vbBeiTdjYTLyHqXOJeHc-1865">
          <mxGeometry relative="1" as="geometry" />
        </mxCell>
        <mxCell id="vbBeiTdjYTLyHqXOJeHc-1872" style="edgeStyle=orthogonalEdgeStyle;rounded=0;orthogonalLoop=1;jettySize=auto;html=1;exitX=0;exitY=0.5;exitDx=0;exitDy=0;entryX=1;entryY=0.5;entryDx=0;entryDy=0;" edge="1" parent="1" source="vbBeiTdjYTLyHqXOJeHc-1785" target="vbBeiTdjYTLyHqXOJeHc-1866">
          <mxGeometry relative="1" as="geometry" />
        </mxCell>
        <mxCell id="vbBeiTdjYTLyHqXOJeHc-1785" value="Конфиденциальные данные" style="whiteSpace=wrap;html=1;fontSize=16;fillColor=#2F5B7C;strokeColor=none;fontColor=#FFFFFF;rounded=1;shadow=0;labelBackgroundColor=none;strokeWidth=3;fontStyle=1;spacing=5;arcSize=7;" vertex="1" parent="1">
          <mxGeometry x="220" y="385.5" width="180" height="60" as="geometry" />
        </mxCell>
        <mxCell id="vbBeiTdjYTLyHqXOJeHc-1797" value="" style="edgeStyle=orthogonalEdgeStyle;rounded=0;orthogonalLoop=1;jettySize=auto;html=1;" edge="1" parent="1" source="vbBeiTdjYTLyHqXOJeHc-1787" target="vbBeiTdjYTLyHqXOJeHc-1796">
          <mxGeometry relative="1" as="geometry" />
        </mxCell>
        <mxCell id="vbBeiTdjYTLyHqXOJeHc-1787" value="&lt;font style=&quot;font-size: 10px;&quot;&gt;каталог доступного жилья и сервисов&lt;/font&gt;" style="whiteSpace=wrap;html=1;fontSize=10;fillColor=#2F5B7C;strokeColor=none;fontColor=#FFFFFF;rounded=1;shadow=0;labelBackgroundColor=none;strokeWidth=3;fontStyle=1;spacing=5;arcSize=7;" vertex="1" parent="1">
          <mxGeometry x="340" y="95.5" width="120" height="60" as="geometry" />
        </mxCell>
        <mxCell id="vbBeiTdjYTLyHqXOJeHc-1806" style="edgeStyle=orthogonalEdgeStyle;rounded=0;orthogonalLoop=1;jettySize=auto;html=1;exitX=0.5;exitY=0;exitDx=0;exitDy=0;entryX=0.5;entryY=1;entryDx=0;entryDy=0;" edge="1" parent="1" source="vbBeiTdjYTLyHqXOJeHc-1792" target="vbBeiTdjYTLyHqXOJeHc-1809">
          <mxGeometry relative="1" as="geometry">
            <mxPoint x="770" y="95.5" as="sourcePoint" />
            <mxPoint x="770" y="15.5" as="targetPoint" />
          </mxGeometry>
        </mxCell>
        <mxCell id="vbBeiTdjYTLyHqXOJeHc-1792" value="&lt;font style=&quot;font-size: 10px;&quot;&gt;маркетинговые материалы&lt;/font&gt;" style="whiteSpace=wrap;html=1;fontSize=10;fillColor=#2F5B7C;strokeColor=none;fontColor=#FFFFFF;rounded=1;shadow=0;labelBackgroundColor=none;strokeWidth=3;fontStyle=1;spacing=5;arcSize=7;" vertex="1" parent="1">
          <mxGeometry x="680" y="95.5" width="120" height="60" as="geometry" />
        </mxCell>
        <mxCell id="vbBeiTdjYTLyHqXOJeHc-1816" style="edgeStyle=orthogonalEdgeStyle;rounded=0;orthogonalLoop=1;jettySize=auto;html=1;exitX=0.5;exitY=0;exitDx=0;exitDy=0;entryX=0.5;entryY=1;entryDx=0;entryDy=0;" edge="1" parent="1" source="vbBeiTdjYTLyHqXOJeHc-1794" target="vbBeiTdjYTLyHqXOJeHc-1814">
          <mxGeometry relative="1" as="geometry" />
        </mxCell>
        <mxCell id="vbBeiTdjYTLyHqXOJeHc-1794" value="&lt;font style=&quot;font-size: 10px;&quot;&gt;общая информация о компании для недвижимости&lt;/font&gt;" style="whiteSpace=wrap;html=1;fontSize=10;fillColor=#2F5B7C;strokeColor=none;fontColor=#FFFFFF;rounded=1;shadow=0;labelBackgroundColor=none;strokeWidth=3;fontStyle=1;spacing=5;arcSize=7;" vertex="1" parent="1">
          <mxGeometry x="510" y="95.5" width="120" height="60" as="geometry" />
        </mxCell>
        <mxCell id="vbBeiTdjYTLyHqXOJeHc-1799" value="" style="edgeStyle=orthogonalEdgeStyle;rounded=0;orthogonalLoop=1;jettySize=auto;html=1;" edge="1" parent="1" source="vbBeiTdjYTLyHqXOJeHc-1796" target="vbBeiTdjYTLyHqXOJeHc-1798">
          <mxGeometry relative="1" as="geometry" />
        </mxCell>
        <mxCell id="vbBeiTdjYTLyHqXOJeHc-1796" value="&lt;font style=&quot;font-size: 9px;&quot;&gt;Искажение данных&lt;br style=&quot;font-size: 9px;&quot;&gt;Риск -&amp;nbsp;&lt;/font&gt;&lt;span style=&quot;font-size: 9px;&quot;&gt;незначительный&lt;/span&gt;" style="whiteSpace=wrap;html=1;fontSize=9;fillColor=#2F5B7C;strokeColor=none;fontColor=#FFFFFF;rounded=1;shadow=0;labelBackgroundColor=none;strokeWidth=3;fontStyle=1;spacing=5;arcSize=7;" vertex="1" parent="1">
          <mxGeometry x="340" y="-44.5" width="120" height="60" as="geometry" />
        </mxCell>
        <mxCell id="vbBeiTdjYTLyHqXOJeHc-1798" value="Искажение может снизить доверие к компании, но не критично для бизнеса." style="whiteSpace=wrap;html=1;fontSize=9;fillColor=#fff2cc;strokeColor=#d6b656;rounded=1;shadow=0;labelBackgroundColor=none;strokeWidth=3;fontStyle=1;spacing=5;arcSize=7;" vertex="1" parent="1">
          <mxGeometry x="340" y="-184.5" width="120" height="60" as="geometry" />
        </mxCell>
        <mxCell id="vbBeiTdjYTLyHqXOJeHc-1812" value="" style="edgeStyle=orthogonalEdgeStyle;rounded=0;orthogonalLoop=1;jettySize=auto;html=1;" edge="1" parent="1" source="vbBeiTdjYTLyHqXOJeHc-1809" target="vbBeiTdjYTLyHqXOJeHc-1811">
          <mxGeometry relative="1" as="geometry" />
        </mxCell>
        <mxCell id="vbBeiTdjYTLyHqXOJeHc-1809" value="Некачественные данные&lt;br style=&quot;font-size: 9px;&quot;&gt;Риск - незначительный" style="whiteSpace=wrap;html=1;fontSize=9;fillColor=#2F5B7C;strokeColor=none;fontColor=#FFFFFF;rounded=1;shadow=0;labelBackgroundColor=none;strokeWidth=3;fontStyle=1;spacing=5;arcSize=7;" vertex="1" parent="1">
          <mxGeometry x="680" y="-44.5" width="120" height="60" as="geometry" />
        </mxCell>
        <mxCell id="vbBeiTdjYTLyHqXOJeHc-1811" value="Низкое качество может снизить эффективность маркетинга" style="whiteSpace=wrap;html=1;fontSize=9;fillColor=#fff2cc;strokeColor=#d6b656;rounded=1;shadow=0;labelBackgroundColor=none;strokeWidth=3;fontStyle=1;spacing=5;arcSize=7;" vertex="1" parent="1">
          <mxGeometry x="680" y="-190" width="120" height="60" as="geometry" />
        </mxCell>
        <mxCell id="vbBeiTdjYTLyHqXOJeHc-1813" value="" style="edgeStyle=orthogonalEdgeStyle;rounded=0;orthogonalLoop=1;jettySize=auto;html=1;" edge="1" parent="1" source="vbBeiTdjYTLyHqXOJeHc-1814" target="vbBeiTdjYTLyHqXOJeHc-1815">
          <mxGeometry relative="1" as="geometry" />
        </mxCell>
        <mxCell id="vbBeiTdjYTLyHqXOJeHc-1814" value="&lt;font style=&quot;font-size: 9px;&quot;&gt;Искажение данных&lt;br style=&quot;font-size: 9px;&quot;&gt;Риск -&amp;nbsp;&lt;/font&gt;&lt;span style=&quot;font-size: 9px;&quot;&gt;незначительный&lt;/span&gt;" style="whiteSpace=wrap;html=1;fontSize=9;fillColor=#2F5B7C;strokeColor=none;fontColor=#FFFFFF;rounded=1;shadow=0;labelBackgroundColor=none;strokeWidth=3;fontStyle=1;spacing=5;arcSize=7;" vertex="1" parent="1">
          <mxGeometry x="510" y="-44.5" width="120" height="60" as="geometry" />
        </mxCell>
        <mxCell id="vbBeiTdjYTLyHqXOJeHc-1815" value="Искажение может снизить доверие к компании, но не критично для бизнеса." style="whiteSpace=wrap;html=1;fontSize=9;fillColor=#fff2cc;strokeColor=#d6b656;rounded=1;shadow=0;labelBackgroundColor=none;strokeWidth=3;fontStyle=1;spacing=5;arcSize=7;" vertex="1" parent="1">
          <mxGeometry x="510" y="-184.5" width="120" height="60" as="geometry" />
        </mxCell>
        <mxCell id="vbBeiTdjYTLyHqXOJeHc-1826" value="" style="edgeStyle=orthogonalEdgeStyle;rounded=0;orthogonalLoop=1;jettySize=auto;html=1;entryX=0;entryY=0.5;entryDx=0;entryDy=0;" edge="1" parent="1" source="vbBeiTdjYTLyHqXOJeHc-1817" target="vbBeiTdjYTLyHqXOJeHc-1825">
          <mxGeometry relative="1" as="geometry" />
        </mxCell>
        <mxCell id="vbBeiTdjYTLyHqXOJeHc-1828" style="edgeStyle=orthogonalEdgeStyle;rounded=0;orthogonalLoop=1;jettySize=auto;html=1;exitX=1;exitY=0.5;exitDx=0;exitDy=0;entryX=0;entryY=0.5;entryDx=0;entryDy=0;" edge="1" parent="1" source="vbBeiTdjYTLyHqXOJeHc-1817" target="vbBeiTdjYTLyHqXOJeHc-1827">
          <mxGeometry relative="1" as="geometry" />
        </mxCell>
        <mxCell id="vbBeiTdjYTLyHqXOJeHc-1817" value="регламенты по работе с пользователями" style="whiteSpace=wrap;html=1;fontSize=10;fillColor=#2F5B7C;strokeColor=none;fontColor=#FFFFFF;rounded=1;shadow=0;labelBackgroundColor=none;strokeWidth=3;fontStyle=1;spacing=5;arcSize=7;" vertex="1" parent="1">
          <mxGeometry x="1040" y="175.5" width="120" height="60" as="geometry" />
        </mxCell>
        <mxCell id="vbBeiTdjYTLyHqXOJeHc-1837" style="edgeStyle=orthogonalEdgeStyle;rounded=0;orthogonalLoop=1;jettySize=auto;html=1;exitX=1;exitY=0.5;exitDx=0;exitDy=0;entryX=0;entryY=0.5;entryDx=0;entryDy=0;" edge="1" parent="1" source="vbBeiTdjYTLyHqXOJeHc-1819" target="vbBeiTdjYTLyHqXOJeHc-1833">
          <mxGeometry relative="1" as="geometry" />
        </mxCell>
        <mxCell id="vbBeiTdjYTLyHqXOJeHc-1838" style="edgeStyle=orthogonalEdgeStyle;rounded=0;orthogonalLoop=1;jettySize=auto;html=1;exitX=1;exitY=0.5;exitDx=0;exitDy=0;entryX=0;entryY=0.5;entryDx=0;entryDy=0;" edge="1" parent="1" source="vbBeiTdjYTLyHqXOJeHc-1819" target="vbBeiTdjYTLyHqXOJeHc-1834">
          <mxGeometry relative="1" as="geometry" />
        </mxCell>
        <mxCell id="vbBeiTdjYTLyHqXOJeHc-1819" value="регламенты работы в компании" style="whiteSpace=wrap;html=1;fontSize=10;fillColor=#2F5B7C;strokeColor=none;fontColor=#FFFFFF;rounded=1;shadow=0;labelBackgroundColor=none;strokeWidth=3;fontStyle=1;spacing=5;arcSize=7;" vertex="1" parent="1">
          <mxGeometry x="1040" y="354" width="120" height="60" as="geometry" />
        </mxCell>
        <mxCell id="vbBeiTdjYTLyHqXOJeHc-1842" value="" style="edgeStyle=orthogonalEdgeStyle;rounded=0;orthogonalLoop=1;jettySize=auto;html=1;entryX=0;entryY=0.5;entryDx=0;entryDy=0;" edge="1" parent="1" source="vbBeiTdjYTLyHqXOJeHc-1821" target="vbBeiTdjYTLyHqXOJeHc-1841">
          <mxGeometry relative="1" as="geometry" />
        </mxCell>
        <mxCell id="vbBeiTdjYTLyHqXOJeHc-1848" style="edgeStyle=orthogonalEdgeStyle;rounded=0;orthogonalLoop=1;jettySize=auto;html=1;exitX=1;exitY=0.5;exitDx=0;exitDy=0;entryX=0;entryY=0.5;entryDx=0;entryDy=0;" edge="1" parent="1" source="vbBeiTdjYTLyHqXOJeHc-1821" target="vbBeiTdjYTLyHqXOJeHc-1847">
          <mxGeometry relative="1" as="geometry" />
        </mxCell>
        <mxCell id="vbBeiTdjYTLyHqXOJeHc-1821" value="скрипты техподдержки" style="whiteSpace=wrap;html=1;fontSize=10;fillColor=#2F5B7C;strokeColor=none;fontColor=#FFFFFF;rounded=1;shadow=0;labelBackgroundColor=none;strokeWidth=3;fontStyle=1;spacing=5;arcSize=7;" vertex="1" parent="1">
          <mxGeometry x="1040" y="535.5" width="120" height="60" as="geometry" />
        </mxCell>
        <mxCell id="vbBeiTdjYTLyHqXOJeHc-1857" style="edgeStyle=orthogonalEdgeStyle;rounded=0;orthogonalLoop=1;jettySize=auto;html=1;exitX=1;exitY=0.5;exitDx=0;exitDy=0;entryX=0;entryY=0.5;entryDx=0;entryDy=0;" edge="1" parent="1" source="vbBeiTdjYTLyHqXOJeHc-1823" target="vbBeiTdjYTLyHqXOJeHc-1852">
          <mxGeometry relative="1" as="geometry" />
        </mxCell>
        <mxCell id="vbBeiTdjYTLyHqXOJeHc-1858" style="edgeStyle=orthogonalEdgeStyle;rounded=0;orthogonalLoop=1;jettySize=auto;html=1;exitX=1;exitY=0.5;exitDx=0;exitDy=0;entryX=0;entryY=0.5;entryDx=0;entryDy=0;" edge="1" parent="1" source="vbBeiTdjYTLyHqXOJeHc-1823" target="vbBeiTdjYTLyHqXOJeHc-1854">
          <mxGeometry relative="1" as="geometry" />
        </mxCell>
        <mxCell id="vbBeiTdjYTLyHqXOJeHc-1823" value="скрипты отдела продаж" style="whiteSpace=wrap;html=1;fontSize=10;fillColor=#2F5B7C;strokeColor=none;fontColor=#FFFFFF;rounded=1;shadow=0;labelBackgroundColor=none;strokeWidth=3;fontStyle=1;spacing=5;arcSize=7;" vertex="1" parent="1">
          <mxGeometry x="1040" y="680" width="120" height="60" as="geometry" />
        </mxCell>
        <mxCell id="vbBeiTdjYTLyHqXOJeHc-1830" value="" style="edgeStyle=orthogonalEdgeStyle;rounded=0;orthogonalLoop=1;jettySize=auto;html=1;" edge="1" parent="1" source="vbBeiTdjYTLyHqXOJeHc-1825" target="vbBeiTdjYTLyHqXOJeHc-1829">
          <mxGeometry relative="1" as="geometry" />
        </mxCell>
        <mxCell id="vbBeiTdjYTLyHqXOJeHc-1825" value="Утечка данных&lt;br&gt;Риск - значительный" style="whiteSpace=wrap;html=1;fontSize=10;fillColor=#2F5B7C;strokeColor=none;fontColor=#FFFFFF;rounded=1;shadow=0;labelBackgroundColor=none;strokeWidth=3;fontStyle=1;spacing=5;arcSize=7;" vertex="1" parent="1">
          <mxGeometry x="1240" y="120" width="120" height="60" as="geometry" />
        </mxCell>
        <mxCell id="vbBeiTdjYTLyHqXOJeHc-1832" value="" style="edgeStyle=orthogonalEdgeStyle;rounded=0;orthogonalLoop=1;jettySize=auto;html=1;" edge="1" parent="1" source="vbBeiTdjYTLyHqXOJeHc-1827" target="vbBeiTdjYTLyHqXOJeHc-1831">
          <mxGeometry relative="1" as="geometry" />
        </mxCell>
        <mxCell id="vbBeiTdjYTLyHqXOJeHc-1827" value="Искажение данных&lt;br&gt;Риск - значительный" style="whiteSpace=wrap;html=1;fontSize=10;fillColor=#2F5B7C;strokeColor=none;fontColor=#FFFFFF;rounded=1;shadow=0;labelBackgroundColor=none;strokeWidth=3;fontStyle=1;spacing=5;arcSize=7;" vertex="1" parent="1">
          <mxGeometry x="1240" y="215.5" width="120" height="60" as="geometry" />
        </mxCell>
        <mxCell id="vbBeiTdjYTLyHqXOJeHc-1829" value="Утечка может привести к утрате конкурентных преимуществ." style="whiteSpace=wrap;html=1;fontSize=10;fillColor=#fff2cc;strokeColor=#d6b656;rounded=1;shadow=0;labelBackgroundColor=none;strokeWidth=3;fontStyle=1;spacing=5;arcSize=7;" vertex="1" parent="1">
          <mxGeometry x="1440" y="120" width="120" height="60" as="geometry" />
        </mxCell>
        <mxCell id="vbBeiTdjYTLyHqXOJeHc-1831" value="Искажение может ухудшить взаимодействие с пользователями и повлиять на продажи" style="whiteSpace=wrap;html=1;fontSize=9;fillColor=#fff2cc;strokeColor=#d6b656;rounded=1;shadow=0;labelBackgroundColor=none;strokeWidth=3;fontStyle=1;spacing=5;arcSize=7;" vertex="1" parent="1">
          <mxGeometry x="1440" y="215.5" width="120" height="60" as="geometry" />
        </mxCell>
        <mxCell id="vbBeiTdjYTLyHqXOJeHc-1839" style="edgeStyle=orthogonalEdgeStyle;rounded=0;orthogonalLoop=1;jettySize=auto;html=1;exitX=1;exitY=0.5;exitDx=0;exitDy=0;entryX=0;entryY=0.5;entryDx=0;entryDy=0;" edge="1" parent="1" source="vbBeiTdjYTLyHqXOJeHc-1833" target="vbBeiTdjYTLyHqXOJeHc-1835">
          <mxGeometry relative="1" as="geometry" />
        </mxCell>
        <mxCell id="vbBeiTdjYTLyHqXOJeHc-1833" value="Утечка данных&lt;br&gt;Риск - значительный" style="whiteSpace=wrap;html=1;fontSize=10;fillColor=#2F5B7C;strokeColor=none;fontColor=#FFFFFF;rounded=1;shadow=0;labelBackgroundColor=none;strokeWidth=3;fontStyle=1;spacing=5;arcSize=7;" vertex="1" parent="1">
          <mxGeometry x="1240" y="300" width="120" height="60" as="geometry" />
        </mxCell>
        <mxCell id="vbBeiTdjYTLyHqXOJeHc-1840" style="edgeStyle=orthogonalEdgeStyle;rounded=0;orthogonalLoop=1;jettySize=auto;html=1;exitX=1;exitY=0.5;exitDx=0;exitDy=0;entryX=0;entryY=0.5;entryDx=0;entryDy=0;" edge="1" parent="1" source="vbBeiTdjYTLyHqXOJeHc-1834" target="vbBeiTdjYTLyHqXOJeHc-1836">
          <mxGeometry relative="1" as="geometry" />
        </mxCell>
        <mxCell id="vbBeiTdjYTLyHqXOJeHc-1834" value="Искажение данных&lt;br&gt;Риск - значительный" style="whiteSpace=wrap;html=1;fontSize=10;fillColor=#2F5B7C;strokeColor=none;fontColor=#FFFFFF;rounded=1;shadow=0;labelBackgroundColor=none;strokeWidth=3;fontStyle=1;spacing=5;arcSize=7;" vertex="1" parent="1">
          <mxGeometry x="1240" y="395.5" width="120" height="60" as="geometry" />
        </mxCell>
        <mxCell id="vbBeiTdjYTLyHqXOJeHc-1835" value="Утечка может привести к утрате конкурентных преимуществ." style="whiteSpace=wrap;html=1;fontSize=10;fillColor=#fff2cc;strokeColor=#d6b656;rounded=1;shadow=0;labelBackgroundColor=none;strokeWidth=3;fontStyle=1;spacing=5;arcSize=7;" vertex="1" parent="1">
          <mxGeometry x="1440" y="300" width="120" height="60" as="geometry" />
        </mxCell>
        <mxCell id="vbBeiTdjYTLyHqXOJeHc-1836" value="Искажение может ухудшить взаимодействие с пользователями и повлиять на продажи" style="whiteSpace=wrap;html=1;fontSize=9;fillColor=#fff2cc;strokeColor=#d6b656;rounded=1;shadow=0;labelBackgroundColor=none;strokeWidth=3;fontStyle=1;spacing=5;arcSize=7;" vertex="1" parent="1">
          <mxGeometry x="1440" y="395.5" width="120" height="60" as="geometry" />
        </mxCell>
        <mxCell id="vbBeiTdjYTLyHqXOJeHc-1844" value="" style="edgeStyle=orthogonalEdgeStyle;rounded=0;orthogonalLoop=1;jettySize=auto;html=1;" edge="1" parent="1" source="vbBeiTdjYTLyHqXOJeHc-1841" target="vbBeiTdjYTLyHqXOJeHc-1843">
          <mxGeometry relative="1" as="geometry" />
        </mxCell>
        <mxCell id="vbBeiTdjYTLyHqXOJeHc-1841" value="Утечка данных&lt;br style=&quot;font-size: 9px;&quot;&gt;Риск - незначительный" style="whiteSpace=wrap;html=1;fontSize=9;fillColor=#2F5B7C;strokeColor=none;fontColor=#FFFFFF;rounded=1;shadow=0;labelBackgroundColor=none;strokeWidth=3;fontStyle=1;spacing=5;arcSize=7;" vertex="1" parent="1">
          <mxGeometry x="1240" y="470" width="120" height="60" as="geometry" />
        </mxCell>
        <mxCell id="vbBeiTdjYTLyHqXOJeHc-1843" value="Утечка техподдержки не даст принципиального преимущества конкурентам - данные скрипты применимы только к нашим процессам и сиситеме" style="whiteSpace=wrap;html=1;fontSize=9;fillColor=#fff2cc;strokeColor=#d6b656;rounded=1;shadow=0;labelBackgroundColor=none;strokeWidth=3;fontStyle=1;spacing=5;arcSize=7;" vertex="1" parent="1">
          <mxGeometry x="1440" y="470" width="160" height="60" as="geometry" />
        </mxCell>
        <mxCell id="vbBeiTdjYTLyHqXOJeHc-1850" value="" style="edgeStyle=orthogonalEdgeStyle;rounded=0;orthogonalLoop=1;jettySize=auto;html=1;" edge="1" parent="1" source="vbBeiTdjYTLyHqXOJeHc-1847" target="vbBeiTdjYTLyHqXOJeHc-1849">
          <mxGeometry relative="1" as="geometry" />
        </mxCell>
        <mxCell id="vbBeiTdjYTLyHqXOJeHc-1847" value="Искажение данных&lt;br style=&quot;font-size: 9px;&quot;&gt;Риск - незначительный" style="whiteSpace=wrap;html=1;fontSize=9;fillColor=#2F5B7C;strokeColor=none;fontColor=#FFFFFF;rounded=1;shadow=0;labelBackgroundColor=none;strokeWidth=3;fontStyle=1;spacing=5;arcSize=7;" vertex="1" parent="1">
          <mxGeometry x="1240" y="560" width="120" height="60" as="geometry" />
        </mxCell>
        <mxCell id="vbBeiTdjYTLyHqXOJeHc-1849" value="Искажение данных может привести к снижению качества работы с пользователями." style="whiteSpace=wrap;html=1;fontSize=9;fillColor=#fff2cc;strokeColor=#d6b656;rounded=1;shadow=0;labelBackgroundColor=none;strokeWidth=3;fontStyle=1;spacing=5;arcSize=7;" vertex="1" parent="1">
          <mxGeometry x="1440" y="560" width="120" height="60" as="geometry" />
        </mxCell>
        <mxCell id="vbBeiTdjYTLyHqXOJeHc-1851" value="" style="edgeStyle=orthogonalEdgeStyle;rounded=0;orthogonalLoop=1;jettySize=auto;html=1;" edge="1" parent="1" source="vbBeiTdjYTLyHqXOJeHc-1852" target="vbBeiTdjYTLyHqXOJeHc-1855">
          <mxGeometry relative="1" as="geometry" />
        </mxCell>
        <mxCell id="vbBeiTdjYTLyHqXOJeHc-1852" value="Утечка данных&lt;br&gt;Риск - значительный" style="whiteSpace=wrap;html=1;fontSize=10;fillColor=#2F5B7C;strokeColor=none;fontColor=#FFFFFF;rounded=1;shadow=0;labelBackgroundColor=none;strokeWidth=3;fontStyle=1;spacing=5;arcSize=7;" vertex="1" parent="1">
          <mxGeometry x="1240" y="640" width="120" height="60" as="geometry" />
        </mxCell>
        <mxCell id="vbBeiTdjYTLyHqXOJeHc-1853" value="" style="edgeStyle=orthogonalEdgeStyle;rounded=0;orthogonalLoop=1;jettySize=auto;html=1;" edge="1" parent="1" source="vbBeiTdjYTLyHqXOJeHc-1854" target="vbBeiTdjYTLyHqXOJeHc-1856">
          <mxGeometry relative="1" as="geometry" />
        </mxCell>
        <mxCell id="vbBeiTdjYTLyHqXOJeHc-1854" value="Искажение данных&lt;br&gt;Риск - значительный" style="whiteSpace=wrap;html=1;fontSize=10;fillColor=#2F5B7C;strokeColor=none;fontColor=#FFFFFF;rounded=1;shadow=0;labelBackgroundColor=none;strokeWidth=3;fontStyle=1;spacing=5;arcSize=7;" vertex="1" parent="1">
          <mxGeometry x="1240" y="735.5" width="120" height="60" as="geometry" />
        </mxCell>
        <mxCell id="vbBeiTdjYTLyHqXOJeHc-1855" value="Утечка может привести к утрате конкурентных преимуществ." style="whiteSpace=wrap;html=1;fontSize=10;fillColor=#fff2cc;strokeColor=#d6b656;rounded=1;shadow=0;labelBackgroundColor=none;strokeWidth=3;fontStyle=1;spacing=5;arcSize=7;" vertex="1" parent="1">
          <mxGeometry x="1440" y="640" width="120" height="60" as="geometry" />
        </mxCell>
        <mxCell id="vbBeiTdjYTLyHqXOJeHc-1856" value="Искажение может обрушить продажи" style="whiteSpace=wrap;html=1;fontSize=9;fillColor=#fff2cc;strokeColor=#d6b656;rounded=1;shadow=0;labelBackgroundColor=none;strokeWidth=3;fontStyle=1;spacing=5;arcSize=7;" vertex="1" parent="1">
          <mxGeometry x="1440" y="735.5" width="120" height="60" as="geometry" />
        </mxCell>
        <mxCell id="vbBeiTdjYTLyHqXOJeHc-1874" value="" style="edgeStyle=orthogonalEdgeStyle;rounded=0;orthogonalLoop=1;jettySize=auto;html=1;" edge="1" parent="1" source="vbBeiTdjYTLyHqXOJeHc-1859" target="vbBeiTdjYTLyHqXOJeHc-1873">
          <mxGeometry relative="1" as="geometry" />
        </mxCell>
        <mxCell id="vbBeiTdjYTLyHqXOJeHc-1859" value="персональные данные пользователей" style="whiteSpace=wrap;html=1;fontSize=10;fillColor=#2F5B7C;strokeColor=none;fontColor=#FFFFFF;rounded=1;shadow=0;labelBackgroundColor=none;strokeWidth=3;fontStyle=1;spacing=5;arcSize=7;" vertex="1" parent="1">
          <mxGeometry x="-60" y="75.5" width="120" height="60" as="geometry" />
        </mxCell>
        <mxCell id="vbBeiTdjYTLyHqXOJeHc-1883" style="edgeStyle=orthogonalEdgeStyle;rounded=0;orthogonalLoop=1;jettySize=auto;html=1;exitX=0;exitY=0.5;exitDx=0;exitDy=0;entryX=1;entryY=0.5;entryDx=0;entryDy=0;" edge="1" parent="1" source="vbBeiTdjYTLyHqXOJeHc-1861" target="vbBeiTdjYTLyHqXOJeHc-1878">
          <mxGeometry relative="1" as="geometry" />
        </mxCell>
        <mxCell id="vbBeiTdjYTLyHqXOJeHc-1861" value="история платежей ЖКХ" style="whiteSpace=wrap;html=1;fontSize=10;fillColor=#2F5B7C;strokeColor=none;fontColor=#FFFFFF;rounded=1;shadow=0;labelBackgroundColor=none;strokeWidth=3;fontStyle=1;spacing=5;arcSize=7;" vertex="1" parent="1">
          <mxGeometry x="-60" y="166" width="120" height="60" as="geometry" />
        </mxCell>
        <mxCell id="vbBeiTdjYTLyHqXOJeHc-1884" style="edgeStyle=orthogonalEdgeStyle;rounded=0;orthogonalLoop=1;jettySize=auto;html=1;exitX=0;exitY=0.5;exitDx=0;exitDy=0;entryX=1;entryY=0.5;entryDx=0;entryDy=0;" edge="1" parent="1" source="vbBeiTdjYTLyHqXOJeHc-1862" target="vbBeiTdjYTLyHqXOJeHc-1881">
          <mxGeometry relative="1" as="geometry" />
        </mxCell>
        <mxCell id="vbBeiTdjYTLyHqXOJeHc-1862" value="информация по транзакциям" style="whiteSpace=wrap;html=1;fontSize=10;fillColor=#2F5B7C;strokeColor=none;fontColor=#FFFFFF;rounded=1;shadow=0;labelBackgroundColor=none;strokeWidth=3;fontStyle=1;spacing=5;arcSize=7;" vertex="1" parent="1">
          <mxGeometry x="-60" y="259.5" width="120" height="60" as="geometry" />
        </mxCell>
        <mxCell id="vbBeiTdjYTLyHqXOJeHc-1891" style="edgeStyle=orthogonalEdgeStyle;rounded=0;orthogonalLoop=1;jettySize=auto;html=1;exitX=0;exitY=0.5;exitDx=0;exitDy=0;entryX=1;entryY=0.5;entryDx=0;entryDy=0;" edge="1" parent="1" source="vbBeiTdjYTLyHqXOJeHc-1863" target="vbBeiTdjYTLyHqXOJeHc-1886">
          <mxGeometry relative="1" as="geometry" />
        </mxCell>
        <mxCell id="vbBeiTdjYTLyHqXOJeHc-1892" style="edgeStyle=orthogonalEdgeStyle;rounded=0;orthogonalLoop=1;jettySize=auto;html=1;exitX=0;exitY=0.5;exitDx=0;exitDy=0;entryX=1;entryY=0.5;entryDx=0;entryDy=0;" edge="1" parent="1" source="vbBeiTdjYTLyHqXOJeHc-1863" target="vbBeiTdjYTLyHqXOJeHc-1889">
          <mxGeometry relative="1" as="geometry" />
        </mxCell>
        <mxCell id="vbBeiTdjYTLyHqXOJeHc-1863" value="информация о сделках с недвижимостью" style="whiteSpace=wrap;html=1;fontSize=10;fillColor=#2F5B7C;strokeColor=none;fontColor=#FFFFFF;rounded=1;shadow=0;labelBackgroundColor=none;strokeWidth=3;fontStyle=1;spacing=5;arcSize=7;" vertex="1" parent="1">
          <mxGeometry x="-60" y="400" width="120" height="60" as="geometry" />
        </mxCell>
        <mxCell id="vbBeiTdjYTLyHqXOJeHc-1902" style="edgeStyle=orthogonalEdgeStyle;rounded=0;orthogonalLoop=1;jettySize=auto;html=1;exitX=0;exitY=0.5;exitDx=0;exitDy=0;entryX=1;entryY=0.5;entryDx=0;entryDy=0;" edge="1" parent="1" source="vbBeiTdjYTLyHqXOJeHc-1864" target="vbBeiTdjYTLyHqXOJeHc-1894">
          <mxGeometry relative="1" as="geometry" />
        </mxCell>
        <mxCell id="vbBeiTdjYTLyHqXOJeHc-1864" value="информация умного дома (например открыта ли квартира)" style="whiteSpace=wrap;html=1;fontSize=10;fillColor=#2F5B7C;strokeColor=none;fontColor=#FFFFFF;rounded=1;shadow=0;labelBackgroundColor=none;strokeWidth=3;fontStyle=1;spacing=5;arcSize=7;" vertex="1" parent="1">
          <mxGeometry x="-60" y="540" width="120" height="60" as="geometry" />
        </mxCell>
        <mxCell id="vbBeiTdjYTLyHqXOJeHc-1904" style="edgeStyle=orthogonalEdgeStyle;rounded=0;orthogonalLoop=1;jettySize=auto;html=1;exitX=0;exitY=0.5;exitDx=0;exitDy=0;entryX=1;entryY=0.5;entryDx=0;entryDy=0;" edge="1" parent="1" source="vbBeiTdjYTLyHqXOJeHc-1865" target="vbBeiTdjYTLyHqXOJeHc-1897">
          <mxGeometry relative="1" as="geometry" />
        </mxCell>
        <mxCell id="vbBeiTdjYTLyHqXOJeHc-1865" value="условия партнерства" style="whiteSpace=wrap;html=1;fontSize=10;fillColor=#2F5B7C;strokeColor=none;fontColor=#FFFFFF;rounded=1;shadow=0;labelBackgroundColor=none;strokeWidth=3;fontStyle=1;spacing=5;arcSize=7;" vertex="1" parent="1">
          <mxGeometry x="-60" y="640" width="120" height="60" as="geometry" />
        </mxCell>
        <mxCell id="vbBeiTdjYTLyHqXOJeHc-1903" style="edgeStyle=orthogonalEdgeStyle;rounded=0;orthogonalLoop=1;jettySize=auto;html=1;exitX=0;exitY=0.5;exitDx=0;exitDy=0;entryX=1;entryY=0.5;entryDx=0;entryDy=0;" edge="1" parent="1" source="vbBeiTdjYTLyHqXOJeHc-1866" target="vbBeiTdjYTLyHqXOJeHc-1900">
          <mxGeometry relative="1" as="geometry" />
        </mxCell>
        <mxCell id="vbBeiTdjYTLyHqXOJeHc-1866" value="аналитика использования продукта пользователями" style="whiteSpace=wrap;html=1;fontSize=10;fillColor=#2F5B7C;strokeColor=none;fontColor=#FFFFFF;rounded=1;shadow=0;labelBackgroundColor=none;strokeWidth=3;fontStyle=1;spacing=5;arcSize=7;" vertex="1" parent="1">
          <mxGeometry x="-60" y="730" width="120" height="60" as="geometry" />
        </mxCell>
        <mxCell id="vbBeiTdjYTLyHqXOJeHc-1876" value="" style="edgeStyle=orthogonalEdgeStyle;rounded=0;orthogonalLoop=1;jettySize=auto;html=1;" edge="1" parent="1" source="vbBeiTdjYTLyHqXOJeHc-1873" target="vbBeiTdjYTLyHqXOJeHc-1875">
          <mxGeometry relative="1" as="geometry" />
        </mxCell>
        <mxCell id="vbBeiTdjYTLyHqXOJeHc-1873" value="Утечка данных&lt;br&gt;Риск - критический" style="whiteSpace=wrap;html=1;fontSize=10;fillColor=#2F5B7C;strokeColor=none;fontColor=#FFFFFF;rounded=1;shadow=0;labelBackgroundColor=none;strokeWidth=3;fontStyle=1;spacing=5;arcSize=7;" vertex="1" parent="1">
          <mxGeometry x="-260" y="75.5" width="120" height="60" as="geometry" />
        </mxCell>
        <mxCell id="vbBeiTdjYTLyHqXOJeHc-1875" value="Нарушение законодательства о защите данных, риск потери доверия пользователей" style="whiteSpace=wrap;html=1;fontSize=10;fillColor=#fff2cc;strokeColor=#d6b656;rounded=1;shadow=0;labelBackgroundColor=none;strokeWidth=3;fontStyle=1;spacing=5;arcSize=7;" vertex="1" parent="1">
          <mxGeometry x="-460" y="75.5" width="120" height="60" as="geometry" />
        </mxCell>
        <mxCell id="vbBeiTdjYTLyHqXOJeHc-1877" value="" style="edgeStyle=orthogonalEdgeStyle;rounded=0;orthogonalLoop=1;jettySize=auto;html=1;" edge="1" parent="1" source="vbBeiTdjYTLyHqXOJeHc-1878" target="vbBeiTdjYTLyHqXOJeHc-1879">
          <mxGeometry relative="1" as="geometry" />
        </mxCell>
        <mxCell id="vbBeiTdjYTLyHqXOJeHc-1878" value="Утечка данных&lt;br&gt;Риск - критический" style="whiteSpace=wrap;html=1;fontSize=10;fillColor=#2F5B7C;strokeColor=none;fontColor=#FFFFFF;rounded=1;shadow=0;labelBackgroundColor=none;strokeWidth=3;fontStyle=1;spacing=5;arcSize=7;" vertex="1" parent="1">
          <mxGeometry x="-260" y="166" width="120" height="60" as="geometry" />
        </mxCell>
        <mxCell id="vbBeiTdjYTLyHqXOJeHc-1879" value="Риск финансовых последствий и репутационных потерь для компании" style="whiteSpace=wrap;html=1;fontSize=10;fillColor=#fff2cc;strokeColor=#d6b656;rounded=1;shadow=0;labelBackgroundColor=none;strokeWidth=3;fontStyle=1;spacing=5;arcSize=7;" vertex="1" parent="1">
          <mxGeometry x="-460" y="166" width="120" height="60" as="geometry" />
        </mxCell>
        <mxCell id="vbBeiTdjYTLyHqXOJeHc-1880" value="" style="edgeStyle=orthogonalEdgeStyle;rounded=0;orthogonalLoop=1;jettySize=auto;html=1;" edge="1" parent="1" source="vbBeiTdjYTLyHqXOJeHc-1881" target="vbBeiTdjYTLyHqXOJeHc-1882">
          <mxGeometry relative="1" as="geometry" />
        </mxCell>
        <mxCell id="vbBeiTdjYTLyHqXOJeHc-1881" value="Утечка данных&lt;br&gt;Риск - критический" style="whiteSpace=wrap;html=1;fontSize=10;fillColor=#2F5B7C;strokeColor=none;fontColor=#FFFFFF;rounded=1;shadow=0;labelBackgroundColor=none;strokeWidth=3;fontStyle=1;spacing=5;arcSize=7;" vertex="1" parent="1">
          <mxGeometry x="-260" y="259.5" width="120" height="60" as="geometry" />
        </mxCell>
        <mxCell id="vbBeiTdjYTLyHqXOJeHc-1882" value="Содержит чувствительную информацию, уязвимость для финансовых мошенничеств" style="whiteSpace=wrap;html=1;fontSize=8;fillColor=#fff2cc;strokeColor=#d6b656;rounded=1;shadow=0;labelBackgroundColor=none;strokeWidth=3;fontStyle=1;spacing=5;arcSize=7;" vertex="1" parent="1">
          <mxGeometry x="-460" y="259.5" width="120" height="60" as="geometry" />
        </mxCell>
        <mxCell id="vbBeiTdjYTLyHqXOJeHc-1885" value="" style="edgeStyle=orthogonalEdgeStyle;rounded=0;orthogonalLoop=1;jettySize=auto;html=1;" edge="1" parent="1" source="vbBeiTdjYTLyHqXOJeHc-1886" target="vbBeiTdjYTLyHqXOJeHc-1887">
          <mxGeometry relative="1" as="geometry" />
        </mxCell>
        <mxCell id="vbBeiTdjYTLyHqXOJeHc-1886" value="Утечка данных&lt;br&gt;Риск - критический" style="whiteSpace=wrap;html=1;fontSize=10;fillColor=#2F5B7C;strokeColor=none;fontColor=#FFFFFF;rounded=1;shadow=0;labelBackgroundColor=none;strokeWidth=3;fontStyle=1;spacing=5;arcSize=7;" vertex="1" parent="1">
          <mxGeometry x="-260" y="355" width="120" height="60" as="geometry" />
        </mxCell>
        <mxCell id="vbBeiTdjYTLyHqXOJeHc-1887" value="Нарушение законодательства о защите данных, риск потери доверия пользователей" style="whiteSpace=wrap;html=1;fontSize=10;fillColor=#fff2cc;strokeColor=#d6b656;rounded=1;shadow=0;labelBackgroundColor=none;strokeWidth=3;fontStyle=1;spacing=5;arcSize=7;" vertex="1" parent="1">
          <mxGeometry x="-460" y="355" width="120" height="60" as="geometry" />
        </mxCell>
        <mxCell id="vbBeiTdjYTLyHqXOJeHc-1888" value="" style="edgeStyle=orthogonalEdgeStyle;rounded=0;orthogonalLoop=1;jettySize=auto;html=1;" edge="1" parent="1" source="vbBeiTdjYTLyHqXOJeHc-1889" target="vbBeiTdjYTLyHqXOJeHc-1890">
          <mxGeometry relative="1" as="geometry" />
        </mxCell>
        <mxCell id="vbBeiTdjYTLyHqXOJeHc-1889" value="Искажение данных&lt;br&gt;Риск - критический" style="whiteSpace=wrap;html=1;fontSize=10;fillColor=#2F5B7C;strokeColor=none;fontColor=#FFFFFF;rounded=1;shadow=0;labelBackgroundColor=none;strokeWidth=3;fontStyle=1;spacing=5;arcSize=7;" vertex="1" parent="1">
          <mxGeometry x="-260" y="445" width="120" height="60" as="geometry" />
        </mxCell>
        <mxCell id="vbBeiTdjYTLyHqXOJeHc-1890" value="Может нарушить юридические права пользователей и привести к потерям компании" style="whiteSpace=wrap;html=1;fontSize=10;fillColor=#fff2cc;strokeColor=#d6b656;rounded=1;shadow=0;labelBackgroundColor=none;strokeWidth=3;fontStyle=1;spacing=5;arcSize=7;" vertex="1" parent="1">
          <mxGeometry x="-460" y="445" width="120" height="60" as="geometry" />
        </mxCell>
        <mxCell id="vbBeiTdjYTLyHqXOJeHc-1893" value="" style="edgeStyle=orthogonalEdgeStyle;rounded=0;orthogonalLoop=1;jettySize=auto;html=1;" edge="1" parent="1" source="vbBeiTdjYTLyHqXOJeHc-1894" target="vbBeiTdjYTLyHqXOJeHc-1895">
          <mxGeometry relative="1" as="geometry" />
        </mxCell>
        <mxCell id="vbBeiTdjYTLyHqXOJeHc-1894" value="Утечка данных&lt;br&gt;Риск - критический" style="whiteSpace=wrap;html=1;fontSize=10;fillColor=#2F5B7C;strokeColor=none;fontColor=#FFFFFF;rounded=1;shadow=0;labelBackgroundColor=none;strokeWidth=3;fontStyle=1;spacing=5;arcSize=7;" vertex="1" parent="1">
          <mxGeometry x="-260" y="540" width="120" height="60" as="geometry" />
        </mxCell>
        <mxCell id="vbBeiTdjYTLyHqXOJeHc-1895" value="Угроза личной безопасности пользователей, репутационные и финансовые потери компании" style="whiteSpace=wrap;html=1;fontSize=8;fillColor=#fff2cc;strokeColor=#d6b656;rounded=1;shadow=0;labelBackgroundColor=none;strokeWidth=3;fontStyle=1;spacing=5;arcSize=7;" vertex="1" parent="1">
          <mxGeometry x="-480" y="540" width="140" height="60" as="geometry" />
        </mxCell>
        <mxCell id="vbBeiTdjYTLyHqXOJeHc-1896" value="" style="edgeStyle=orthogonalEdgeStyle;rounded=0;orthogonalLoop=1;jettySize=auto;html=1;" edge="1" parent="1" source="vbBeiTdjYTLyHqXOJeHc-1897" target="vbBeiTdjYTLyHqXOJeHc-1898">
          <mxGeometry relative="1" as="geometry" />
        </mxCell>
        <mxCell id="vbBeiTdjYTLyHqXOJeHc-1897" value="Утечка данных&lt;br&gt;Риск - критический" style="whiteSpace=wrap;html=1;fontSize=10;fillColor=#2F5B7C;strokeColor=none;fontColor=#FFFFFF;rounded=1;shadow=0;labelBackgroundColor=none;strokeWidth=3;fontStyle=1;spacing=5;arcSize=7;" vertex="1" parent="1">
          <mxGeometry x="-260" y="640" width="120" height="60" as="geometry" />
        </mxCell>
        <mxCell id="vbBeiTdjYTLyHqXOJeHc-1898" value="Риск потери партнёров, конкуренты могут переманить." style="whiteSpace=wrap;html=1;fontSize=8;fillColor=#fff2cc;strokeColor=#d6b656;rounded=1;shadow=0;labelBackgroundColor=none;strokeWidth=3;fontStyle=1;spacing=5;arcSize=7;" vertex="1" parent="1">
          <mxGeometry x="-460" y="640" width="120" height="60" as="geometry" />
        </mxCell>
        <mxCell id="vbBeiTdjYTLyHqXOJeHc-1899" value="" style="edgeStyle=orthogonalEdgeStyle;rounded=0;orthogonalLoop=1;jettySize=auto;html=1;" edge="1" parent="1" source="vbBeiTdjYTLyHqXOJeHc-1900" target="vbBeiTdjYTLyHqXOJeHc-1901">
          <mxGeometry relative="1" as="geometry" />
        </mxCell>
        <mxCell id="vbBeiTdjYTLyHqXOJeHc-1900" value="Утечка данных&lt;br&gt;Риск - значительный" style="whiteSpace=wrap;html=1;fontSize=10;fillColor=#2F5B7C;strokeColor=none;fontColor=#FFFFFF;rounded=1;shadow=0;labelBackgroundColor=none;strokeWidth=3;fontStyle=1;spacing=5;arcSize=7;" vertex="1" parent="1">
          <mxGeometry x="-260" y="730" width="120" height="60" as="geometry" />
        </mxCell>
        <mxCell id="vbBeiTdjYTLyHqXOJeHc-1901" value="Может раскрыть чувствительную информацию о предпочтениях пользователей. Потеря конкуретного преимущества" style="whiteSpace=wrap;html=1;fontSize=8;fillColor=#fff2cc;strokeColor=#d6b656;rounded=1;shadow=0;labelBackgroundColor=none;strokeWidth=3;fontStyle=1;spacing=5;arcSize=7;" vertex="1" parent="1">
          <mxGeometry x="-480" y="730" width="140" height="60" as="geometry" />
        </mxCell>
        <mxCell id="vbBeiTdjYTLyHqXOJeHc-1920" value="" style="edgeStyle=orthogonalEdgeStyle;rounded=0;orthogonalLoop=1;jettySize=auto;html=1;entryX=0.5;entryY=0;entryDx=0;entryDy=0;" edge="1" parent="1" source="vbBeiTdjYTLyHqXOJeHc-1905" target="vbBeiTdjYTLyHqXOJeHc-1921">
          <mxGeometry relative="1" as="geometry">
            <mxPoint x="170" y="980" as="targetPoint" />
          </mxGeometry>
        </mxCell>
        <mxCell id="vbBeiTdjYTLyHqXOJeHc-1905" value="платежные данные пользователей" style="whiteSpace=wrap;html=1;fontSize=10;fillColor=#2F5B7C;strokeColor=none;fontColor=#FFFFFF;rounded=1;shadow=0;labelBackgroundColor=none;strokeWidth=3;fontStyle=1;spacing=5;arcSize=7;" vertex="1" parent="1">
          <mxGeometry x="110" y="840" width="120" height="60" as="geometry" />
        </mxCell>
        <mxCell id="vbBeiTdjYTLyHqXOJeHc-1928" style="edgeStyle=orthogonalEdgeStyle;rounded=0;orthogonalLoop=1;jettySize=auto;html=1;entryX=0.5;entryY=0;entryDx=0;entryDy=0;" edge="1" parent="1" source="vbBeiTdjYTLyHqXOJeHc-1907" target="vbBeiTdjYTLyHqXOJeHc-1922">
          <mxGeometry relative="1" as="geometry" />
        </mxCell>
        <mxCell id="vbBeiTdjYTLyHqXOJeHc-1907" value="ключи шифрования данных в системе" style="whiteSpace=wrap;html=1;fontSize=10;fillColor=#2F5B7C;strokeColor=none;fontColor=#FFFFFF;rounded=1;shadow=0;labelBackgroundColor=none;strokeWidth=3;fontStyle=1;spacing=5;arcSize=7;" vertex="1" parent="1">
          <mxGeometry x="280" y="840" width="120" height="60" as="geometry" />
        </mxCell>
        <mxCell id="vbBeiTdjYTLyHqXOJeHc-1931" style="edgeStyle=orthogonalEdgeStyle;rounded=0;orthogonalLoop=1;jettySize=auto;html=1;entryX=0.5;entryY=0;entryDx=0;entryDy=0;" edge="1" parent="1" source="vbBeiTdjYTLyHqXOJeHc-1910" target="vbBeiTdjYTLyHqXOJeHc-1925">
          <mxGeometry relative="1" as="geometry" />
        </mxCell>
        <mxCell id="vbBeiTdjYTLyHqXOJeHc-1910" value="корневые сертификаты трафика" style="whiteSpace=wrap;html=1;fontSize=10;fillColor=#2F5B7C;strokeColor=none;fontColor=#FFFFFF;rounded=1;shadow=0;labelBackgroundColor=none;strokeWidth=3;fontStyle=1;spacing=5;arcSize=7;" vertex="1" parent="1">
          <mxGeometry x="870" y="840" width="120" height="60" as="geometry" />
        </mxCell>
        <mxCell id="vbBeiTdjYTLyHqXOJeHc-1930" style="edgeStyle=orthogonalEdgeStyle;rounded=0;orthogonalLoop=1;jettySize=auto;html=1;entryX=0.5;entryY=0;entryDx=0;entryDy=0;" edge="1" parent="1" source="vbBeiTdjYTLyHqXOJeHc-1912" target="vbBeiTdjYTLyHqXOJeHc-1923">
          <mxGeometry relative="1" as="geometry" />
        </mxCell>
        <mxCell id="vbBeiTdjYTLyHqXOJeHc-1912" value="ключи работы с внешними интеграциями" style="whiteSpace=wrap;html=1;fontSize=10;fillColor=#2F5B7C;strokeColor=none;fontColor=#FFFFFF;rounded=1;shadow=0;labelBackgroundColor=none;strokeWidth=3;fontStyle=1;spacing=5;arcSize=7;" vertex="1" parent="1">
          <mxGeometry x="730" y="840" width="120" height="60" as="geometry" />
        </mxCell>
        <mxCell id="vbBeiTdjYTLyHqXOJeHc-1929" style="edgeStyle=orthogonalEdgeStyle;rounded=0;orthogonalLoop=1;jettySize=auto;html=1;entryX=0.5;entryY=0;entryDx=0;entryDy=0;" edge="1" parent="1" source="vbBeiTdjYTLyHqXOJeHc-1915" target="vbBeiTdjYTLyHqXOJeHc-1926">
          <mxGeometry relative="1" as="geometry" />
        </mxCell>
        <mxCell id="vbBeiTdjYTLyHqXOJeHc-1915" value="архитектура системы безопасности" style="whiteSpace=wrap;html=1;fontSize=10;fillColor=#2F5B7C;strokeColor=none;fontColor=#FFFFFF;rounded=1;shadow=0;labelBackgroundColor=none;strokeWidth=3;fontStyle=1;spacing=5;arcSize=7;" vertex="1" parent="1">
          <mxGeometry x="590" y="840" width="120" height="60" as="geometry" />
        </mxCell>
        <mxCell id="vbBeiTdjYTLyHqXOJeHc-1927" style="edgeStyle=orthogonalEdgeStyle;rounded=0;orthogonalLoop=1;jettySize=auto;html=1;entryX=0.5;entryY=0;entryDx=0;entryDy=0;" edge="1" parent="1" source="vbBeiTdjYTLyHqXOJeHc-1917" target="vbBeiTdjYTLyHqXOJeHc-1924">
          <mxGeometry relative="1" as="geometry" />
        </mxCell>
        <mxCell id="vbBeiTdjYTLyHqXOJeHc-1917" value="настройки системы безопасности" style="whiteSpace=wrap;html=1;fontSize=10;fillColor=#2F5B7C;strokeColor=none;fontColor=#FFFFFF;rounded=1;shadow=0;labelBackgroundColor=none;strokeWidth=3;fontStyle=1;spacing=5;arcSize=7;" vertex="1" parent="1">
          <mxGeometry x="445" y="840" width="120" height="60" as="geometry" />
        </mxCell>
        <mxCell id="vbBeiTdjYTLyHqXOJeHc-1933" value="" style="edgeStyle=orthogonalEdgeStyle;rounded=0;orthogonalLoop=1;jettySize=auto;html=1;" edge="1" parent="1" source="vbBeiTdjYTLyHqXOJeHc-1921" target="vbBeiTdjYTLyHqXOJeHc-1932">
          <mxGeometry relative="1" as="geometry" />
        </mxCell>
        <mxCell id="vbBeiTdjYTLyHqXOJeHc-1921" value="Утечка данных&lt;br&gt;Риск - критический" style="whiteSpace=wrap;html=1;fontSize=10;fillColor=#2F5B7C;strokeColor=none;fontColor=#FFFFFF;rounded=1;shadow=0;labelBackgroundColor=none;strokeWidth=3;fontStyle=1;spacing=5;arcSize=7;" vertex="1" parent="1">
          <mxGeometry x="110" y="990" width="120" height="60" as="geometry" />
        </mxCell>
        <mxCell id="vbBeiTdjYTLyHqXOJeHc-1937" value="" style="edgeStyle=orthogonalEdgeStyle;rounded=0;orthogonalLoop=1;jettySize=auto;html=1;" edge="1" parent="1" source="vbBeiTdjYTLyHqXOJeHc-1922" target="vbBeiTdjYTLyHqXOJeHc-1936">
          <mxGeometry relative="1" as="geometry" />
        </mxCell>
        <mxCell id="vbBeiTdjYTLyHqXOJeHc-1922" value="Утечка данных&lt;br&gt;Риск - критический" style="whiteSpace=wrap;html=1;fontSize=10;fillColor=#2F5B7C;strokeColor=none;fontColor=#FFFFFF;rounded=1;shadow=0;labelBackgroundColor=none;strokeWidth=3;fontStyle=1;spacing=5;arcSize=7;" vertex="1" parent="1">
          <mxGeometry x="280" y="990" width="120" height="60" as="geometry" />
        </mxCell>
        <mxCell id="vbBeiTdjYTLyHqXOJeHc-1935" value="" style="edgeStyle=orthogonalEdgeStyle;rounded=0;orthogonalLoop=1;jettySize=auto;html=1;" edge="1" parent="1" source="vbBeiTdjYTLyHqXOJeHc-1923" target="vbBeiTdjYTLyHqXOJeHc-1934">
          <mxGeometry relative="1" as="geometry" />
        </mxCell>
        <mxCell id="vbBeiTdjYTLyHqXOJeHc-1923" value="Утечка данных&lt;br&gt;Риск - критический" style="whiteSpace=wrap;html=1;fontSize=10;fillColor=#2F5B7C;strokeColor=none;fontColor=#FFFFFF;rounded=1;shadow=0;labelBackgroundColor=none;strokeWidth=3;fontStyle=1;spacing=5;arcSize=7;" vertex="1" parent="1">
          <mxGeometry x="730" y="990" width="120" height="60" as="geometry" />
        </mxCell>
        <mxCell id="vbBeiTdjYTLyHqXOJeHc-1943" value="" style="edgeStyle=orthogonalEdgeStyle;rounded=0;orthogonalLoop=1;jettySize=auto;html=1;" edge="1" parent="1" source="vbBeiTdjYTLyHqXOJeHc-1924" target="vbBeiTdjYTLyHqXOJeHc-1942">
          <mxGeometry relative="1" as="geometry" />
        </mxCell>
        <mxCell id="vbBeiTdjYTLyHqXOJeHc-1924" value="Обесценивание данных&lt;br&gt;Риск - критический" style="whiteSpace=wrap;html=1;fontSize=10;fillColor=#2F5B7C;strokeColor=none;fontColor=#FFFFFF;rounded=1;shadow=0;labelBackgroundColor=none;strokeWidth=3;fontStyle=1;spacing=5;arcSize=7;" vertex="1" parent="1">
          <mxGeometry x="445" y="990" width="120" height="60" as="geometry" />
        </mxCell>
        <mxCell id="vbBeiTdjYTLyHqXOJeHc-1939" value="" style="edgeStyle=orthogonalEdgeStyle;rounded=0;orthogonalLoop=1;jettySize=auto;html=1;" edge="1" parent="1" source="vbBeiTdjYTLyHqXOJeHc-1925" target="vbBeiTdjYTLyHqXOJeHc-1938">
          <mxGeometry relative="1" as="geometry" />
        </mxCell>
        <mxCell id="vbBeiTdjYTLyHqXOJeHc-1925" value="Утечка данных&lt;br&gt;Риск - критический" style="whiteSpace=wrap;html=1;fontSize=10;fillColor=#2F5B7C;strokeColor=none;fontColor=#FFFFFF;rounded=1;shadow=0;labelBackgroundColor=none;strokeWidth=3;fontStyle=1;spacing=5;arcSize=7;" vertex="1" parent="1">
          <mxGeometry x="870" y="990" width="120" height="60" as="geometry" />
        </mxCell>
        <mxCell id="vbBeiTdjYTLyHqXOJeHc-1941" value="" style="edgeStyle=orthogonalEdgeStyle;rounded=0;orthogonalLoop=1;jettySize=auto;html=1;" edge="1" parent="1" source="vbBeiTdjYTLyHqXOJeHc-1926" target="vbBeiTdjYTLyHqXOJeHc-1940">
          <mxGeometry relative="1" as="geometry" />
        </mxCell>
        <mxCell id="vbBeiTdjYTLyHqXOJeHc-1926" value="Утечка данных&lt;br&gt;Риск - критический" style="whiteSpace=wrap;html=1;fontSize=10;fillColor=#2F5B7C;strokeColor=none;fontColor=#FFFFFF;rounded=1;shadow=0;labelBackgroundColor=none;strokeWidth=3;fontStyle=1;spacing=5;arcSize=7;" vertex="1" parent="1">
          <mxGeometry x="590" y="990" width="120" height="60" as="geometry" />
        </mxCell>
        <mxCell id="vbBeiTdjYTLyHqXOJeHc-1932" value="Утечка может привести к серьёзным финансовым и юридическим последствиям." style="whiteSpace=wrap;html=1;fontSize=10;fillColor=#fff2cc;strokeColor=#d6b656;rounded=1;shadow=0;labelBackgroundColor=none;strokeWidth=3;fontStyle=1;spacing=5;arcSize=7;" vertex="1" parent="1">
          <mxGeometry x="110" y="1130" width="120" height="80" as="geometry" />
        </mxCell>
        <mxCell id="vbBeiTdjYTLyHqXOJeHc-1934" value="Внешние интеграции могут быть использованы во вред, например будут поданы документы на покупку жилья без ведома пользователя" style="whiteSpace=wrap;html=1;fontSize=10;fillColor=#fff2cc;strokeColor=#d6b656;rounded=1;shadow=0;labelBackgroundColor=none;strokeWidth=3;fontStyle=1;spacing=5;arcSize=7;" vertex="1" parent="1">
          <mxGeometry x="730" y="1130" width="120" height="100" as="geometry" />
        </mxCell>
        <mxCell id="vbBeiTdjYTLyHqXOJeHc-1936" value="Нарушение конфиденциальности всех данных в системе, угроза целостности данных." style="whiteSpace=wrap;html=1;fontSize=10;fillColor=#fff2cc;strokeColor=#d6b656;rounded=1;shadow=0;labelBackgroundColor=none;strokeWidth=3;fontStyle=1;spacing=5;arcSize=7;" vertex="1" parent="1">
          <mxGeometry x="280" y="1130" width="120" height="80" as="geometry" />
        </mxCell>
        <mxCell id="vbBeiTdjYTLyHqXOJeHc-1938" value="Позволит злоумышленникам получить доступ к передаваемым данным." style="whiteSpace=wrap;html=1;fontSize=10;fillColor=#fff2cc;strokeColor=#d6b656;rounded=1;shadow=0;labelBackgroundColor=none;strokeWidth=3;fontStyle=1;spacing=5;arcSize=7;" vertex="1" parent="1">
          <mxGeometry x="870" y="1130" width="120" height="70" as="geometry" />
        </mxCell>
        <mxCell id="vbBeiTdjYTLyHqXOJeHc-1940" value="Утечка этой информации ослабляет защиту компании от атак." style="whiteSpace=wrap;html=1;fontSize=10;fillColor=#fff2cc;strokeColor=#d6b656;rounded=1;shadow=0;labelBackgroundColor=none;strokeWidth=3;fontStyle=1;spacing=5;arcSize=7;" vertex="1" parent="1">
          <mxGeometry x="590" y="1130" width="120" height="60" as="geometry" />
        </mxCell>
        <mxCell id="vbBeiTdjYTLyHqXOJeHc-1942" value="Утрата актуальности настроек безопасности повышает уязвимость всей системы" style="whiteSpace=wrap;html=1;fontSize=10;fillColor=#fff2cc;strokeColor=#d6b656;rounded=1;shadow=0;labelBackgroundColor=none;strokeWidth=3;fontStyle=1;spacing=5;arcSize=7;" vertex="1" parent="1">
          <mxGeometry x="445" y="1130" width="120" height="70" as="geometry" />
        </mxCell>
      </root>
    </mxGraphModel>
  </diagram>
</mxfile>
